<svg width="42" height="42" viewBox="0 0 42 42" fill="none" xmlns="http://www.w3.org/2000/svg">
<g clip-path="url(#clip0_1_4154)">
<rect width="42" height="42" fill="#F9EFCF"/>
<path d="M21.0035 36.8217C16.6985 36.8217 16.191 36.7989 14.511 36.7254C13.2009 36.6824 11.9077 36.416 10.6872 35.9379C9.64279 35.5315 8.69429 34.9123 7.90196 34.1196C7.10963 33.327 6.49079 32.3783 6.08473 31.3337C5.62501 30.1087 5.37706 28.8145 5.35148 27.5064C5.25348 25.8299 5.25348 25.2804 5.25348 21.0087C5.25348 16.6914 5.27623 16.1874 5.35148 14.5162C5.37762 13.2098 5.62557 11.9174 6.08473 10.6942C6.49032 9.64826 7.10958 8.69843 7.90297 7.90535C8.69635 7.11226 9.64641 6.49336 10.6925 6.08817C11.9151 5.62652 13.2078 5.37792 14.5145 5.35317C16.1857 5.25867 16.7352 5.25867 21.0035 5.25867C25.3435 5.25867 25.8422 5.28142 27.496 5.35317C28.805 5.37767 30.1035 5.62617 31.3285 6.08817C32.3743 6.49383 33.3241 7.1129 34.1174 7.90592C34.9107 8.69894 35.5302 9.64853 35.9362 10.6942C36.4035 11.9367 36.6537 13.2492 36.673 14.5739C36.771 16.2504 36.771 16.7982 36.771 21.0682C36.771 25.3382 36.7465 25.8982 36.673 27.5554C36.6468 28.8648 36.3983 30.1601 35.938 31.3862C35.5309 32.4315 34.9109 33.3807 34.1174 34.1737C33.3238 34.9666 32.3741 35.5859 31.3285 35.9922C30.1035 36.4507 28.8102 36.6992 27.503 36.7254C25.8317 36.8217 25.284 36.8217 21.0035 36.8217ZM20.944 8.02892C16.6635 8.02892 16.219 8.04992 14.5477 8.12517C13.5496 8.13822 12.5611 8.3223 11.6252 8.66942C10.9426 8.93107 10.3224 9.33286 9.80456 9.84888C9.28673 10.3649 8.88277 10.9837 8.61873 11.6654C8.26873 12.6104 8.08498 13.6097 8.07448 14.6177C7.98173 16.3134 7.98173 16.7579 7.98173 21.0087C7.98173 25.2087 7.99748 25.7179 8.07448 27.4032C8.09023 28.4007 8.27398 29.3894 8.61873 30.3257C9.15423 31.7029 10.2462 32.7914 11.627 33.3199C12.5617 33.6692 13.55 33.8534 14.5477 33.8642C16.2417 33.9622 16.688 33.9622 20.944 33.9622C25.2367 33.9622 25.6812 33.9412 27.3385 33.8642C28.3367 33.8521 29.3253 33.668 30.261 33.3199C30.94 33.0563 31.5566 32.6542 32.0718 32.1393C32.587 31.6244 32.9894 31.008 33.2535 30.3292C33.6035 29.3842 33.7872 28.3832 33.7977 27.3752H33.817C33.8922 25.7022 33.8922 25.2559 33.8922 20.9807C33.8922 16.7054 33.873 16.2557 33.7977 14.5844C33.7819 13.5877 33.5979 12.6008 33.2535 11.6654C32.99 10.9856 32.5879 10.3681 32.0727 9.85233C31.5575 9.33651 30.9405 8.93365 30.261 8.66942C29.3247 8.31942 28.336 8.13742 27.3385 8.12517C25.6462 8.02892 25.2035 8.02892 20.944 8.02892ZM21.0035 29.0919C19.4032 29.093 17.8386 28.6194 16.5075 27.7311C15.1764 26.8429 14.1387 25.5798 13.5255 24.1017C12.9123 22.6236 12.7512 20.9969 13.0627 19.4272C13.3741 17.8575 14.144 16.4155 15.2751 15.2835C16.4061 14.1514 17.8475 13.3803 19.4169 13.0675C20.9863 12.7547 22.6132 12.9143 24.0918 13.5262C25.5704 14.1382 26.8344 15.1748 27.7238 16.5051C28.6132 17.8355 29.0881 19.3997 29.0885 20.9999C29.0857 23.144 28.2332 25.1995 26.7178 26.7163C25.2024 28.233 23.1475 29.0873 21.0035 29.0919ZM21.0035 15.7464C19.9651 15.7464 18.9501 16.0543 18.0867 16.6312C17.2234 17.2081 16.5505 18.028 16.1531 18.9873C15.7558 19.9466 15.6518 21.0022 15.8544 22.0206C16.0569 23.039 16.5569 23.9745 17.2912 24.7087C18.0254 25.443 18.9609 25.943 19.9793 26.1455C20.9977 26.3481 22.0533 26.2441 23.0126 25.8468C23.9719 25.4494 24.7918 24.7765 25.3687 23.9132C25.9456 23.0498 26.2535 22.0348 26.2535 20.9964C26.2502 19.605 25.6961 18.2715 24.7122 17.2877C23.7283 16.3038 22.3949 15.7497 21.0035 15.7464ZM29.4035 14.4987C29.1557 14.4977 28.9106 14.448 28.6821 14.3524C28.4536 14.2567 28.2461 14.117 28.0716 13.9412C27.7191 13.5861 27.5221 13.1055 27.524 12.6052C27.5258 12.1048 27.7264 11.6257 28.0815 11.2733C28.4366 10.9208 28.9171 10.7238 29.4175 10.7257C29.9178 10.7275 30.3969 10.9281 30.7494 11.2832C31.1019 11.6383 31.2988 12.1188 31.297 12.6192C31.2951 13.1195 31.0946 13.5986 30.7395 13.9511C30.3844 14.3035 29.9038 14.5005 29.4035 14.4987Z" fill="#F38281"/>
</g>
<defs>
<clipPath id="clip0_1_4154">
<rect width="42" height="42" fill="white"/>
</clipPath>
</defs>
</svg>
