<svg width="42" height="42" fill="none" xmlns="http://www.w3.org/2000/svg"><g clip-path="url(#a)"><path fill="#F38281" d="M0 0h42v42H0z"/><path d="M21 37h-6l-4-1a8 8 0 0 1-5-5l-1-3V15l1-4a8 8 0 0 1 5-5l4-1h12l4 1a8 8 0 0 1 5 5l1 4v6a113 113 0 0 1-1 10 8 8 0 0 1-5 5l-3 1h-7Zm0-29h-6l-3 1a5 5 0 0 0-3 3l-1 3v6a110 110 0 0 0 1 9c0 2 1 3 3 3l3 1h12l3-1a5 5 0 0 0 3-3l1-3v-6a109 109 0 0 0-1-9 5 5 0 0 0-3-3l-3-1h-6Zm0 21a8 8 0 1 1 0-16 8 8 0 0 1 0 16Zm0-13a5 5 0 1 0 0 10 5 5 0 0 0 0-10Zm8-2a2 2 0 1 1 0-3 2 2 0 0 1 0 3Z" fill="#fff"/></g><defs><clipPath id="a"><path fill="#fff" d="M0 0h42v42H0z"/></clipPath></defs></svg>