<svg width="42" height="42" viewBox="0 0 42 42" fill="none" xmlns="http://www.w3.org/2000/svg">
<path d="M21 39.2175C20.367 39.2188 19.7414 39.0816 19.167 38.8156C18.5926 38.5496 18.0834 38.1611 17.675 37.6775L16.135 35.9275C15.8736 35.6201 15.5452 35.3768 15.1751 35.216C14.805 35.0552 14.4031 34.9813 14 35L11.655 35.21C11.0227 35.2628 10.3864 35.1773 9.7904 34.9597C9.19438 34.742 8.65283 34.3973 8.20332 33.9495C7.75381 33.5016 7.40709 32.9613 7.18722 32.3661C6.96735 31.7709 6.87958 31.135 6.93 30.5025L7 28.105C7.03258 27.6901 6.96538 27.2734 6.80402 26.8898C6.64267 26.5062 6.39184 26.1668 6.0725 25.9L4.3225 24.3775C3.83655 23.9685 3.4459 23.4581 3.17791 22.8823C2.90991 22.3064 2.77105 21.6789 2.77105 21.0437C2.77105 20.4086 2.90991 19.7811 3.17791 19.2052C3.4459 18.6293 3.83655 18.119 4.3225 17.71L6.0725 16.17C6.38469 15.9049 6.63098 15.5709 6.79194 15.1943C6.95291 14.8177 7.02413 14.4088 7 14L6.825 11.6025C6.77223 10.9702 6.85764 10.3339 7.0753 9.73788C7.29297 9.14186 7.63767 8.60031 8.08552 8.1508C8.53336 7.70129 9.07363 7.35457 9.66884 7.1347C10.2641 6.91483 10.9 6.82706 11.5325 6.87748L13.895 6.99998C14.3041 7.04102 14.7171 6.98473 15.1004 6.8357C15.4836 6.68668 15.8261 6.44914 16.1 6.14248L17.6225 4.39248C18.0306 3.89014 18.5454 3.48501 19.1297 3.20652C19.7139 2.92803 20.3528 2.78317 21 2.78248C21.633 2.78116 22.2586 2.91833 22.833 3.18436C23.4074 3.45039 23.9166 3.83884 24.325 4.32248L25.865 6.07248C26.1281 6.3778 26.4568 6.61979 26.8264 6.78038C27.1961 6.94098 27.5973 7.01604 28 6.99998L30.345 6.78998C30.9773 6.73721 31.6136 6.82262 32.2096 7.04028C32.8056 7.25795 33.3472 7.60265 33.7967 8.0505C34.2462 8.49834 34.5929 9.03861 34.8128 9.63382C35.0326 10.229 35.1204 10.865 35.07 11.4975L35 13.895C34.9674 14.3099 35.0346 14.7265 35.196 15.1101C35.3573 15.4937 35.6082 15.8331 35.9275 16.1L37.6775 17.6225C38.1634 18.0315 38.5541 18.5418 38.8221 19.1177C39.0901 19.6936 39.2289 20.3211 39.2289 20.9562C39.2289 21.5914 39.0901 22.2189 38.8221 22.7948C38.5541 23.3706 38.1634 23.881 37.6775 24.29L35.9275 25.83C35.6153 26.0951 35.369 26.4291 35.2081 26.8057C35.0471 27.1823 34.9759 27.5911 35 28L35.21 30.3625C35.2628 30.9948 35.1774 31.6311 34.9597 32.2271C34.742 32.8231 34.3973 33.3647 33.9495 33.8142C33.5016 34.2637 32.9614 34.6104 32.3662 34.8303C31.7709 35.0501 31.135 35.1379 30.5025 35.0875L28.105 35C27.6903 34.9688 27.2741 35.0367 26.8907 35.198C26.5073 35.3592 26.1678 35.6093 25.9 35.9275L24.3775 37.6775C23.97 38.1634 23.4613 38.5545 22.8871 38.8235C22.3128 39.0925 21.6867 39.233 21.0525 39.235L21 39.2175ZM14.175 33.25C14.808 33.2487 15.4336 33.3858 16.008 33.6519C16.5824 33.9179 17.0916 34.3063 17.5 34.79L19.04 36.54C19.2833 36.8325 19.5884 37.0674 19.9333 37.2278C20.2783 37.3881 20.6546 37.47 21.035 37.4675C21.417 37.4644 21.794 37.3801 22.141 37.2201C22.488 37.0602 22.797 36.8284 23.0475 36.54L24.57 34.79C25.0112 34.2538 25.5765 33.8334 26.2169 33.565C26.8572 33.2967 27.5534 33.1885 28.245 33.25L30.6075 33.425C30.9859 33.4599 31.3674 33.4105 31.7244 33.2804C32.0815 33.1502 32.4052 32.9426 32.6725 32.6725C32.9411 32.4005 33.1475 32.0734 33.2774 31.7139C33.4073 31.3543 33.4577 30.9709 33.425 30.59L33.25 28.1925C33.186 27.5014 33.2893 26.805 33.5513 26.1623C33.8132 25.5196 34.2261 24.9494 34.755 24.5L36.505 22.96C36.7994 22.7239 37.0382 22.4259 37.2045 22.0872C37.3709 21.7484 37.4606 21.3773 37.4675 21C37.4644 20.618 37.3801 20.241 37.2202 19.894C37.0603 19.547 36.8284 19.238 36.54 18.9875L34.79 17.465C34.2499 17.0194 33.8271 16.4482 33.5586 15.8015C33.2902 15.1548 33.1842 14.4521 33.25 13.755L33.425 11.3925C33.4587 11.0142 33.4087 10.6331 33.2787 10.2762C33.1486 9.91934 32.9417 9.59545 32.6725 9.32748C32.4012 9.05791 32.0742 8.85088 31.7145 8.7209C31.3548 8.59092 30.971 8.54112 30.59 8.57498L28.1925 8.74998C27.501 8.8185 26.8033 8.71723 26.1598 8.45496C25.5163 8.19269 24.9466 7.77735 24.5 7.24498L22.96 5.49498C22.7239 5.20061 22.4259 4.96179 22.0872 4.79545C21.7485 4.62912 21.3773 4.53934 21 4.53248C20.618 4.5356 20.241 4.61991 19.894 4.77982C19.547 4.93972 19.238 5.17157 18.9875 5.45998L17.465 7.20998C17.0184 7.74894 16.4471 8.17087 15.8006 8.43922C15.1542 8.70757 14.452 8.81423 13.755 8.74998L11.3925 8.57498C11.0142 8.54132 10.6331 8.59129 10.2762 8.72133C9.91936 8.85137 9.59547 9.05831 9.3275 9.32748C9.05175 9.60538 8.84119 9.94109 8.71105 10.3103C8.58091 10.6796 8.53444 11.0731 8.575 11.4625L8.75 13.8075C8.81402 14.4986 8.71067 15.1949 8.44871 15.8376C8.18675 16.4804 7.77388 17.0505 7.245 17.5L5.495 19.04C5.20063 19.2761 4.96181 19.5741 4.79547 19.9128C4.62914 20.2515 4.53936 20.6227 4.5325 21C4.53562 21.382 4.61993 21.759 4.77984 22.106C4.93974 22.4529 5.17159 22.7619 5.46 23.0125L7.21 24.535C7.75013 24.9806 8.1729 25.5517 8.44136 26.1985C8.70981 26.8452 8.81578 27.5478 8.75 28.245L8.575 30.6075C8.54134 30.9858 8.59131 31.3669 8.72135 31.7238C8.85139 32.0806 9.05833 32.4045 9.3275 32.6725C9.59883 32.9421 9.9258 33.1491 10.2855 33.2791C10.6452 33.409 11.029 33.4588 11.41 33.425L13.8075 33.25H14.175Z" fill="#95E1D3"/>
<path d="M21 27.125C19.3755 27.125 17.8176 26.4797 16.669 25.331C15.5203 24.1824 14.875 22.6245 14.875 21C14.875 19.3755 15.5203 17.8176 16.669 16.669C17.8176 15.5203 19.3755 14.875 21 14.875C22.6245 14.875 24.1824 15.5203 25.331 16.669C26.4797 17.8176 27.125 19.3755 27.125 21C27.125 22.6245 26.4797 24.1824 25.331 25.331C24.1824 26.4797 22.6245 27.125 21 27.125ZM21 16.625C19.8397 16.625 18.7269 17.0859 17.9064 17.9064C17.0859 18.7269 16.625 19.8397 16.625 21C16.625 22.1603 17.0859 23.2731 17.9064 24.0936C18.7269 24.9141 19.8397 25.375 21 25.375C22.1603 25.375 23.2731 24.9141 24.0936 24.0936C24.9141 23.2731 25.375 22.1603 25.375 21C25.375 19.8397 24.9141 18.7269 24.0936 17.9064C23.2731 17.0859 22.1603 16.625 21 16.625Z" fill="#95E1D3"/>
</svg>
